<?xml version="1.0" encoding="UTF-8" standalone="no"?>
<svg
   xmlns:dc="http://purl.org/dc/elements/1.1/"
   xmlns:cc="http://creativecommons.org/ns#"
   xmlns:rdf="http://www.w3.org/1999/02/22-rdf-syntax-ns#"
   xmlns:svg="http://www.w3.org/2000/svg"
   xmlns="http://www.w3.org/2000/svg"
   xmlns:sodipodi="http://sodipodi.sourceforge.net/DTD/sodipodi-0.dtd"
   xmlns:inkscape="http://www.inkscape.org/namespaces/inkscape"
   clip-rule="evenodd"
   stroke-miterlimit="10"
   viewBox="0 0 690.66 638.50"
   version="1.1"
   id="svg256"
   sodipodi:docname="Circuit_Nürburgring-2002-vs-1927(3).svg"
   inkscape:version="1.0 (4035a4fb49, 2020-05-01)">
  <metadata
     id="metadata260">
    <rdf:RDF>
      <cc:Work
         rdf:about="">
        <dc:format>image/svg+xml</dc:format>
        <dc:type
           rdf:resource="http://purl.org/dc/dcmitype/StillImage" />
        <dc:title />
      </cc:Work>
    </rdf:RDF>
  </metadata>
  <sodipodi:namedview
     inkscape:snap-global="false"
     pagecolor="#ffffff"
     bordercolor="#666666"
     borderopacity="1"
     objecttolerance="10"
     gridtolerance="10"
     guidetolerance="10"
     inkscape:pageopacity="0"
     inkscape:pageshadow="2"
     inkscape:window-width="1918"
     inkscape:window-height="2121"
     id="namedview258"
     showgrid="false"
     inkscape:zoom="2.3022709"
     inkscape:cx="317.45911"
     inkscape:cy="308.44431"
     inkscape:window-x="2986"
     inkscape:window-y="0"
     inkscape:window-maximized="0"
     inkscape:current-layer="layer3"
     inkscape:document-rotation="0" />
  <desc
     id="desc2">SVG generated by Lineform</desc>
  <defs
     id="defs4" />
  <g
     inkscape:groupmode="layer"
     id="layer1"
     inkscape:label="Layer 1"
     style="display:inline">
    <path
       id="path8"
       fill="none"
       stroke-width="6"
       stroke="#999999"
       d="m 537.76,72.41 c -2.89,1.39 -4.6,1.97 -9.14,4.44 -4.77,2.59 -25.29,15.62 -26.28,15.93" />
    <path
       id="path220"
       fill="none"
       stroke-width="5"
       stroke="#000000"
       d="m 246.69,465.19 c -10.54,7.91 -12.23,10.12 -14.09,8.46 -6.94,-6.24 -7.59,2.65 -8.66,7.04 -1.92,7.83 -7.23,20.44 -5.88,24.12 1.45,3.94 8.78,4.6 10.5,7.13 2.92,4.29 -8.08,7.28 -12.37,10.62 -4.92,3.84 -11.5,9.62 -14.75,14.38 -2.75,4.01 -5.47,7.18 -9,4.37 -2.46,-1.95 -1.04,-4.41 2,-7.25 6.03,-5.62 13.62,-13.96 14.12,-16.87 0.51,-2.98 -1.7,-6.18 -1.37,-9.38 0.71,-6.96 8.54,-25.79 9,-30.62 0.44,-4.66 -10.96,-6.32 -13,-10.63 -1.51,-3.18 18.49,-23.96 22.12,-26.12 3.24,-1.94 25.6,-5.7 38.46,-8.86 4.25,-1.04 3.84,-7.26 6.58,-7.6 5.09,-0.63 9.04,-4.49 8.46,-9.38 -0.14,-1.19 -0.33,-1.7 -1.08,-2.64 -1.41,-1.76 -1.11,-3.32 -4.69,-3.56 -1.67,-0.11 -3.72,0.03 -5.98,4.08 -1.24,2.23 -2.52,3.97 -4.39,5.63 -3.69,3.28 -7.6,6 -12.41,5.99 -5.01,-0.01 -6.64,-2.55 -12.56,-4.43 -4.06,-1.29 -11.17,-1.6 -13.43,-0.53 -1.82,0.86 -1.53,0.99 -2.97,1.17 -1.84,0.23 -3.54,-0.81 -4.9,-2.25 -2.09,-2.23 -2.97,-3.82 -4.99,-6.48 -1.47,-1.93 -3.9,-3.13 -5.21,-5.39 -0.88,-1.51 -0.54,-2.32 -2.57,-3.87 -1.43,-1.09 -7.59,-0.99 -11.73,-2.42 -3.19,-1.11 -2.91,-5.36 -5.04,-8.64 -2.09,-3.22 -12.84,-9.59 -18.97,-14.74 -7.28,-7.65 -7.59,-8.41 -10.52,-11.69 -2.93,-3.28 -5.47,-5.82 -7.82,-9.08 -1.62,-2.25 -3.15,-5.58 -2.7,-9.44 0.99,-8.54 5.84,-15.38 5.93,-25.09 0.07,-6.66 0.54,-9.71 -0.98,-20.68 -0.62,-4.43 -2.13,-7.45 -3.78,-11.6 -3.81,-9.56 -8.11,-18.99 -13.13,-28.24 -1.88,-3.47 -4.61,-6.16 -7.73,-8 -3.51,-2.07 -7.77,-3.79 -11.69,-5.75 -1.98,-0.99 -2.9,-3.26 -2.52,-5.22 0.76,-3.89 6.27,-4.17 12.77,-7.19 7.89,-3.68 11.38,-5.81 15.83,-9.71 5.51,-4.84 10.43,-8.19 15.82,-13.4 3.76,-3.63 6.99,-5.92 9.98,-11.87 1.68,-3.34 2.85,-6.1 3.78,-9.98 1.35,-5.67 0.12,-10.62 0.99,-13.67 1.04,-3.64 5.17,-4.28 5.75,-7.01 0.54,-2.52 -2.5,-5.49 -1.08,-9.17 0.87,-2.26 6.64,-5.25 10.79,-8.9 3.33,-2.93 2.88,-3.63 6.12,-7.11 6.19,-6.65 6.63,-5.68 13.3,-13.22 2.79,-3.14 4.77,-6 5.58,-9.98 1.05,-5.17 -1.35,-9.8 -3.15,-13.93 -0.58,-1.35 -1.62,-2.16 -3.32,-2.79 -1.44,-0.53 -3.75,0.17 -5.31,-0.45 -2.7,-1.08 -4.31,-1.9 -6.83,-3.87 -3.11,-2.42 -4.44,-4.59 -4.59,-6.47 -0.18,-2.34 1.23,-3.18 2.97,-3.96 3.85,-1.73 9.46,-4.87 13.4,-8.9 2.21,-2.27 1.11,-5.13 2.33,-8.18 0.69,-1.72 2.22,-4.53 4.23,-6.48 2.88,-2.78 6.99,-4.24 11.96,-1.97 5.12,2.33 9.35,4.94 14.3,9.53 1.35,1.26 0.86,5.23 3.68,5.12 3.75,-0.15 1.84,-2.6 5.76,-4.49 6.17,-2.99 14.55,-3.32 20.77,-1.71 2.91,0.72 6.3,2.44 9.26,1.98 3.84,-0.6 5.25,-3.81 5.57,-5.31 0.75,-3.42 -0.11,-8.42 1.8,-10.88 1.96,-2.51 2.93,-3.86 15.2,-7.82 11.64,-3.76 15.83,-1.61 21.85,-3.96 6.87,-2.68 12.36,-11.31 17.71,-10.97 2.82,0.18 5.5,1.66 6.03,4.95 0.94,5.92 -0.5,11.76 -0.54,17.17 -0.09,12.14 3.42,18.94 5.84,21.58 4.79,5.21 9.89,8.32 15.74,11.06 4.4,2.07 7.91,4.06 14.02,4.14 11.56,0.15 20.33,0.09 29.14,2.07 5.69,1.27 11.55,2.73 16.36,6.02 3.69,2.52 5.71,4.91 9.26,7.1 6.57,4.05 11.3,5.92 16.73,5.13 4.28,-0.63 10.34,-4.61 14.92,-8.45 3.87,-3.24 7.42,-8.18 12.41,-9.26 7.47,-1.62 11.14,-0.67 16.1,-2.7 4.39,-1.8 6.61,-1.84 7.82,-0.72 3.1,2.87 0.82,6.11 -1.35,7.73 -5.03,3.78 -13.55,10.64 -16,11.24 -5.92,1.46 -4.79,6.43 -3.47,7.73 3.07,3.04 7.7,0.85 8.3,-1.37 0.44,-1.66 1.71,-2.7 4.22,-4.5 2.88,-2.06 5.88,-3.65 11.33,-5.57 2.38,-0.84 3.96,-1.69 10.35,-2.43 4.61,-0.54 9.3,-6.54 13.03,-11.88 4.8,-6.88 0.29,-8.05 1.38,-12.01 0.9,-3.3 1.78,-6.71 6.02,-9.62 3.68,-2.53 23.03,3.97 24.46,4.85 3.42,2.12 5.08,6.17 8.27,7.65 3.69,1.7 5.2,1.73 8.27,3.14 2.16,0.99 8.91,10.68 8.99,13.31 0.14,4.33 -7.33,16.17 -2.87,20.05 3.93,3.43 5.09,2.46 9.53,4.68 3.05,1.52 3.05,6.48 3.24,9.89 0.18,3.33 0.09,7.73 -2.61,9.17 -5.4,2.88 -12.7,-1.53 -18.79,0.18 -3.25,0.91 -2.16,5.13 -6.21,10.25 -4.7,5.95 -6.92,12.58 -6.92,16.28 0,5.48 0.54,12.49 0.09,17.44 -0.24,2.66 -1.75,5.64 -4.14,6.83 -3.96,1.98 -7.69,1.63 -10.97,3.96 -3.51,2.49 -5.57,5.24 -8.81,8.81 -3.15,3.47 -3.69,5.55 -5.67,9.8 -1.7,3.69 -3.14,5.22 -5.12,7.56 -1.76,2.07 -4.48,3.07 -6.74,4.58 -2.16,1.44 -4.12,3.81 -7.74,4.77 -9.82,2.58 -19.1,6.79 -28.5,7.46 -6.19,0.44 -8.27,-7.28 -14.39,-7.19 -2.56,0.03 -5,1.41 -7.19,2.96 -3.73,2.64 -7.48,4.42 -7.2,7.56 0.91,9.98 19.52,9.35 24.46,17.08 1.62,2.53 4.01,6.13 3.6,12.23 -0.22,3.33 -2.91,6.09 -5.4,8.09 -5.79,4.68 -26.07,16.19 -39.38,24.19 l -65.64,40.73 c -12.05,7.56 -31.17,18.85 -36.33,22.75 -12.4,9.37 -23.11,27.04 -25.93,31.07 -1.75,2.5 -7.71,6.71 -8.37,8.63 -0.77,2.22 -0.54,6.42 -2.75,8 -2.67,1.89 -4.26,1.17 -6.97,1.51 -7.28,0.89 -8.36,3.81 -11.02,6.27 z m 33.87,-48.4" />
    <g
       id="g252">
      <path
         id="path222"
         fill="#000000"
         fill-rule="non-zero"
         d="m 270.05,432.93 2.95,2.93 -2.93,2.94 -2.94,-2.92 z m 0,0" />
      <path
         id="path224"
         fill="#ffffff"
         fill-rule="non-zero"
         d="m 267.13,435.88 2.94,2.92 -2.92,2.95 -2.95,-2.93 z m 0,0" />
      <path
         id="path226"
         fill="#000000"
         fill-rule="non-zero"
         d="m 264.2,438.82 2.95,2.93 -2.93,2.94 -2.94,-2.92 z m 0,0" />
      <path
         id="path228"
         fill="#ffffff"
         fill-rule="non-zero"
         d="m 272.97,435.83 2.95,2.93 -2.93,2.95 -2.94,-2.93 z m 0,0" />
      <path
         id="path230"
         fill="#ffffff"
         fill-rule="non-zero"
         d="m 267.12,441.72 2.95,2.93 -2.93,2.94 -2.95,-2.92 z m 0,0" />
      <path
         id="path232"
         fill="#000000"
         fill-rule="non-zero"
         d="m 270.02,438.75 2.95,2.93 -2.93,2.94 -2.94,-2.92 z m 0,0" />
      <path
         id="path234"
         fill="#000000"
         fill-rule="non-zero"
         d="m 275.89,438.73 2.95,2.93 -2.93,2.95 -2.94,-2.93 z m 0,0" />
      <path
         id="path236"
         fill="#ffffff"
         fill-rule="non-zero"
         d="m 272.97,441.68 2.94,2.93 -2.93,2.94 -2.94,-2.93 z m 0,0" />
      <path
         id="path238"
         fill="#000000"
         fill-rule="non-zero"
         d="m 270.04,444.62 2.94,2.93 -2.92,2.95 -2.95,-2.93 z m 0,0" />
      <path
         id="path240"
         fill="#ffffff"
         fill-rule="non-zero"
         d="m 278.81,441.64 2.95,2.92 -2.93,2.95 -2.94,-2.93 z m 0,0" />
      <path
         id="path242"
         fill="#ffffff"
         fill-rule="non-zero"
         d="m 272.96,447.52 2.94,2.93 -2.92,2.95 -2.95,-2.93 z m 0,0" />
      <path
         id="path244"
         fill="#000000"
         fill-rule="non-zero"
         d="m 275.86,444.55 2.94,2.93 -2.92,2.95 -2.95,-2.93 z m 0,0" />
      <path
         id="path246"
         fill="#000000"
         fill-rule="non-zero"
         d="m 281.78,444.38 2.95,2.93 -2.93,2.94 -2.94,-2.92 z m 0,0" />
      <path
         id="path248"
         fill="#ffffff"
         fill-rule="non-zero"
         d="m 278.86,447.33 2.94,2.92 -2.93,2.95 -2.94,-2.93 z m 0,0" />
      <path
         id="path250"
         fill="#000000"
         fill-rule="non-zero"
         d="m 275.93,450.27 2.94,2.93 -2.92,2.94 -2.95,-2.92 z m 0,0" />
    </g>
  </g>
  <g
     inkscape:groupmode="layer"
     id="layer2"
     inkscape:label="corners - ge"
     style="display:inline">
    <text
       xml:space="preserve"
       style="font-size:9px;line-height:1.25em;font-family:sans-serif;-inkscape-font-specification:'sans-serif, Normal';word-spacing:0px;fill:#000000;fill-opacity:0.501961"
       x="281.6423"
       y="414.63156"
       id="text1449"><tspan
         sodipodi:role="line"
         id="tspan1447"
         x="281.6423"
         y="414.63156">T13</tspan></text>
    <text
       xml:space="preserve"
       style="font-size:9px;line-height:1.25em;font-family:sans-serif;-inkscape-font-specification:'sans-serif, Normal';word-spacing:0px;fill:#000000;fill-opacity:0.501961"
       x="145.58174"
       y="54.055668"
       id="text1453"><tspan
         sodipodi:role="line"
         id="tspan1451"
         x="145.58174"
         y="54.055668">Drei-Fach Rechtes</tspan></text>
    <text
       xml:space="preserve"
       style="font-size:9px;line-height:1.25em;font-family:sans-serif;-inkscape-font-specification:'sans-serif, Normal';word-spacing:0px;fill:#000000;fill-opacity:0.501961"
       x="263.81308"
       y="397.65451"
       id="text1462"><tspan
         sodipodi:role="line"
         id="tspan1460"
         x="263.81308"
         y="397.65451">Nordkehre</tspan></text>
    <text
       xml:space="preserve"
       style="font-size:9px;line-height:1.25em;font-family:sans-serif;-inkscape-font-specification:'sans-serif, Normal';word-spacing:0px;fill:#000000;fill-opacity:0.501961"
       x="211.93182"
       y="409.05682"
       id="text1472"><tspan
         sodipodi:role="line"
         id="tspan1470"
         x="211.93182"
         y="409.05682">Hatzenbach</tspan></text>
    <text
       xml:space="preserve"
       style="font-size:9px;line-height:1.25em;font-family:sans-serif;-inkscape-font-specification:'sans-serif, Normal';word-spacing:0px;fill:#000000;fill-opacity:0.501961"
       x="162.59496"
       y="360.17877"
       id="text1486"><tspan
         sodipodi:role="line"
         id="tspan1484"
         x="162.59496"
         y="360.17877">Quiddelbacher-Höhe</tspan></text>
    <text
       xml:space="preserve"
       style="font-size:9px;line-height:1.25em;font-family:sans-serif;-inkscape-font-specification:'sans-serif, Normal';word-spacing:0px;fill:#000000;fill-opacity:0.501961"
       x="98.938309"
       y="344.95514"
       id="text1490"><tspan
         sodipodi:role="line"
         id="tspan1488"
         x="98.938309"
         y="344.95514">Flugplatz</tspan></text>
    <text
       xml:space="preserve"
       style="font-size:9px;line-height:1.25em;font-family:sans-serif;-inkscape-font-specification:'sans-serif, Normal';word-spacing:0px;fill:#000000;fill-opacity:0.501961"
       x="157.41464"
       y="303.85391"
       id="text1494"><tspan
         sodipodi:role="line"
         id="tspan1492"
         x="157.41464"
         y="303.85391">Kottenborn</tspan></text>
    <text
       xml:space="preserve"
       style="font-size:9px;line-height:1.25em;font-family:sans-serif;-inkscape-font-specification:'sans-serif, Normal';word-spacing:0px;fill:#000000;fill-opacity:0.501961"
       x="142.89432"
       y="262.44638"
       id="text1498"><tspan
         sodipodi:role="line"
         id="tspan1496"
         x="142.89432"
         y="262.44638">Schwedenkreuz</tspan></text>
    <text
       xml:space="preserve"
       style="font-size:9px;line-height:1.25em;font-family:sans-serif;-inkscape-font-specification:'sans-serif, Normal';word-spacing:0px;fill:#000000;fill-opacity:0.501961"
       x="64.06443"
       y="245.78531"
       id="text1502"><tspan
         sodipodi:role="line"
         id="tspan1500"
         x="64.06443"
         y="245.78531">Aremberg</tspan></text>
    <text
       xml:space="preserve"
       style="font-size:9px;line-height:1.25em;font-family:sans-serif;-inkscape-font-specification:'sans-serif, Normal';word-spacing:0px;fill:#000000;fill-opacity:0.501961"
       x="82.581505"
       y="224.39799"
       id="text1506"><tspan
         sodipodi:role="line"
         id="tspan1504"
         x="82.581505"
         y="224.39799">Poststraße</tspan></text>
    <text
       xml:space="preserve"
       style="font-size:9px;line-height:1.25em;font-family:sans-serif;-inkscape-font-specification:'sans-serif, Normal';word-spacing:0px;fill:#000000;fill-opacity:0.501961"
       x="131.91425"
       y="410.10132"
       id="text1482"><tspan
         sodipodi:role="line"
         id="tspan1480"
         x="131.91425"
         y="410.10132">Hoheneichen</tspan></text>
    <text
       xml:space="preserve"
       style="font-size:9px;line-height:1.25em;font-family:sans-serif;-inkscape-font-specification:'sans-serif, Normal';word-spacing:0px;display:inline;fill:#000000;fill-opacity:0.501961"
       x="165.29982"
       y="215.72025"
       id="text1510"><tspan
         sodipodi:role="line"
         id="tspan1508"
         x="165.29982"
         y="215.72025">Fuchsröhre</tspan></text>
    <text
       xml:space="preserve"
       style="font-size:9px;line-height:1.25em;font-family:sans-serif;-inkscape-font-specification:'sans-serif, Normal';word-spacing:0px;display:inline;fill:#000000;fill-opacity:0.501961"
       x="98.000626"
       y="179.98053"
       id="text1514"><tspan
         sodipodi:role="line"
         id="tspan1512"
         x="98.000626"
         y="179.98053">Adenauer Forst</tspan></text>
    <text
       xml:space="preserve"
       style="font-size:9px;line-height:1.25em;font-family:sans-serif;-inkscape-font-specification:'sans-serif, Normal';word-spacing:0px;display:inline;fill:#000000;fill-opacity:0.501961"
       x="146.57147"
       y="129.86725"
       id="text1518"><tspan
         sodipodi:role="line"
         id="tspan1516"
         x="146.57147"
         y="129.86725">Metzgesfeld</tspan></text>
    <text
       xml:space="preserve"
       style="font-size:9px;line-height:1.25em;font-family:sans-serif;-inkscape-font-specification:'sans-serif, Normal';word-spacing:0px;display:inline;fill:#000000;fill-opacity:0.501961"
       x="137.04204"
       y="91.824036"
       id="text1522"><tspan
         sodipodi:role="line"
         id="tspan1520"
         x="137.04204"
         y="91.824036">Kallenhard</tspan></text>
    <text
       xml:space="preserve"
       style="font-size:9px;line-height:1.25em;font-family:sans-serif;-inkscape-font-specification:'sans-serif, Normal';word-spacing:0px;display:inline;fill:#000000;fill-opacity:0.501961"
       x="211.1819"
       y="94.44426"
       id="text1526"><tspan
         sodipodi:role="line"
         id="tspan1524"
         x="211.1819"
         y="94.44426">Wehrseifen</tspan></text>
    <text
       xml:space="preserve"
       style="font-size:9px;line-height:1.25em;font-family:sans-serif;-inkscape-font-specification:'sans-serif, Normal';word-spacing:0px;display:inline;fill:#000000;fill-opacity:0.501961"
       x="240.25406"
       y="63.670086"
       id="text1530"><tspan
         sodipodi:role="line"
         id="tspan1528"
         x="240.25406"
         y="63.670086">Exmühle</tspan></text>
    <text
       xml:space="preserve"
       style="font-size:9px;line-height:1.25em;font-family:sans-serif;-inkscape-font-specification:'sans-serif, Normal';word-spacing:0px;display:inline;fill:#000000;fill-opacity:0.501961"
       x="261.84973"
       y="99.169304"
       id="text1534"><tspan
         sodipodi:role="line"
         id="tspan1532"
         x="261.84973"
         y="99.169304">Ausfahrt Breidscheid</tspan></text>
    <text
       xml:space="preserve"
       style="font-size:9px;line-height:1.25em;font-family:sans-serif;-inkscape-font-specification:'sans-serif, Normal';word-spacing:0px;display:inline;fill:#000000;fill-opacity:0.501961"
       x="349.785"
       y="39.72871"
       id="text1538"><tspan
         sodipodi:role="line"
         id="tspan1536"
         x="349.785"
         y="39.72871">Bergwerk</tspan></text>
    <text
       xml:space="preserve"
       style="font-size:9px;line-height:1.25em;font-family:sans-serif;-inkscape-font-specification:'sans-serif, Normal';word-spacing:0px;display:inline;fill:#000000;fill-opacity:0.501961"
       x="374.62076"
       y="83.890465"
       id="text1542"><tspan
         sodipodi:role="line"
         id="tspan1540"
         x="374.62076"
         y="83.890465">Kesselchen</tspan></text>
    <text
       xml:space="preserve"
       style="font-size:9px;line-height:1.25em;font-family:sans-serif;-inkscape-font-specification:'sans-serif, Normal';word-spacing:0px;display:inline;fill:#000000;fill-opacity:0.501961"
       x="413.97769"
       y="130.27884"
       id="text1546"><tspan
         sodipodi:role="line"
         id="tspan1544"
         x="413.97769"
         y="130.27884">Mutkurve</tspan></text>
    <text
       xml:space="preserve"
       style="font-size:9px;line-height:1.25em;font-family:sans-serif;-inkscape-font-specification:'sans-serif, Normal';word-spacing:0px;display:inline;fill:#000000;fill-opacity:0.501961"
       x="442.71506"
       y="92.625938"
       id="text1550"><tspan
         sodipodi:role="line"
         id="tspan1548"
         x="442.71506"
         y="92.625938">Klostertal</tspan></text>
    <text
       xml:space="preserve"
       style="font-size:9px;line-height:1.25em;font-family:sans-serif;-inkscape-font-specification:'sans-serif, Normal';word-spacing:0px;display:inline;fill:#000000;fill-opacity:0.501961"
       x="467.4715"
       y="77.144089"
       id="text1554"><tspan
         sodipodi:role="line"
         id="tspan1552"
         x="467.4715"
         y="77.144089">Steilstrecke</tspan></text>
    <text
       xml:space="preserve"
       style="font-size:9px;line-height:1.25em;font-family:sans-serif;-inkscape-font-specification:'sans-serif, Normal';word-spacing:0px;display:inline;fill:#000000;fill-opacity:0.501961"
       x="507.66318"
       y="62.942158"
       id="text1558"><tspan
         sodipodi:role="line"
         id="tspan1556"
         x="507.66318"
         y="62.942158">Hohe Acht</tspan></text>
    <text
       xml:space="preserve"
       style="font-size:9px;line-height:1.25em;font-family:sans-serif;-inkscape-font-specification:'sans-serif, Normal';word-spacing:0px;display:inline;fill:#000000;fill-opacity:0.501961"
       x="556.52081"
       y="69.114937"
       id="text1562"><tspan
         sodipodi:role="line"
         id="tspan1560"
         x="556.52081"
         y="69.114937">Hedwigshöhe</tspan></text>
    <text
       xml:space="preserve"
       style="font-size:9px;line-height:1.25em;font-family:sans-serif;-inkscape-font-specification:'sans-serif, Normal';word-spacing:0px;display:inline;fill:#000000;fill-opacity:0.501961"
       x="587.8974"
       y="91.183418"
       id="text1566"><tspan
         sodipodi:role="line"
         id="tspan1564"
         x="587.8974"
         y="91.183418">Wippermann</tspan></text>
    <text
       xml:space="preserve"
       style="font-size:9px;line-height:1.25em;font-family:sans-serif;-inkscape-font-specification:'sans-serif, Normal';word-spacing:0px;display:inline;fill:#000000;fill-opacity:0.501961"
       x="535.52502"
       y="116.57767"
       id="text1570"><tspan
         sodipodi:role="line"
         id="tspan1568"
         x="535.52502"
         y="116.57767">Eschbach</tspan></text>
    <text
       xml:space="preserve"
       style="font-size:9px;line-height:1.25em;font-family:sans-serif;-inkscape-font-specification:'sans-serif, Normal';word-spacing:0px;display:inline;fill:#000000;fill-opacity:0.501961"
       x="601.74854"
       y="136.1236"
       id="text1574"><tspan
         sodipodi:role="line"
         id="tspan1572"
         x="601.74854"
         y="136.1236">Brünnchen</tspan></text>
    <text
       xml:space="preserve"
       style="font-size:9px;line-height:1.25em;font-family:sans-serif;-inkscape-font-specification:'sans-serif, Normal';word-spacing:0px;display:inline;fill:#000000;fill-opacity:0.501961"
       x="527.89868"
       y="150.04474"
       id="text1578"><tspan
         sodipodi:role="line"
         id="tspan1576"
         x="527.89868"
         y="150.04474">Eiskurve</tspan></text>
    <text
       xml:space="preserve"
       style="font-size:9px;line-height:1.25em;font-family:sans-serif;-inkscape-font-specification:'sans-serif, Normal';word-spacing:0px;display:inline;fill:#000000;fill-opacity:0.501961"
       x="467.25604"
       y="135.30119"
       id="text1582"><tspan
         sodipodi:role="line"
         id="tspan1580"
         x="467.25604"
         y="135.30119">Karussell</tspan></text>
    <text
       xml:space="preserve"
       style="font-size:9px;line-height:1.25em;font-family:sans-serif;-inkscape-font-specification:'sans-serif, Normal';word-spacing:0px;display:inline;fill:#000000;fill-opacity:0.501961"
       x="493.10742"
       y="173.64062"
       id="text1586"><tspan
         sodipodi:role="line"
         id="tspan1584"
         x="493.10742"
         y="173.64062">Pflanzgarten I</tspan></text>
    <text
       xml:space="preserve"
       style="font-size:9px;line-height:1.25em;font-family:sans-serif;-inkscape-font-specification:'sans-serif, Normal';word-spacing:0px;display:inline;fill:#000000;fill-opacity:0.501961"
       x="477.49252"
       y="206.81186"
       id="text1590"><tspan
         sodipodi:role="line"
         id="tspan1588"
         x="477.49252"
         y="206.81186">Sprunghügel</tspan></text>
    <text
       xml:space="preserve"
       style="font-size:9px;line-height:1.25em;font-family:sans-serif;-inkscape-font-specification:'sans-serif, Normal';word-spacing:0px;display:inline;fill:#000000;fill-opacity:0.501961"
       x="536.14832"
       y="240.36021"
       id="text1594"><tspan
         sodipodi:role="line"
         id="tspan1592"
         x="536.14832"
         y="240.36021">Pflanzgarten II</tspan></text>
    <text
       xml:space="preserve"
       style="font-size:9px;line-height:1.25em;font-family:sans-serif;-inkscape-font-specification:'sans-serif, Normal';word-spacing:0px;display:inline;fill:#000000;fill-opacity:0.501961"
       x="389.18097"
       y="226.18971"
       id="text1598"><tspan
         sodipodi:role="line"
         id="tspan1596"
         x="389.18097"
         y="226.18971">Schwalbenschwanz</tspan></text>
    <text
       xml:space="preserve"
       style="font-size:9px;line-height:1.25em;font-family:sans-serif;-inkscape-font-specification:'sans-serif, Normal';word-spacing:0px;display:inline;fill:#000000;fill-opacity:0.501961"
       x="371.37244"
       y="245.19269"
       id="text1602"><tspan
         sodipodi:role="line"
         id="tspan1600"
         x="371.37244"
         y="245.19269">kleines Karussell</tspan></text>
    <text
       xml:space="preserve"
       style="font-size:9px;line-height:1.25em;font-family:sans-serif;-inkscape-font-specification:'sans-serif, Normal';word-spacing:0px;display:inline;fill:#000000;fill-opacity:0.501961"
       x="488.10504"
       y="276.57477"
       id="text1606"><tspan
         sodipodi:role="line"
         id="tspan1604"
         x="488.10504"
         y="276.57477">Galgenkopf</tspan></text>
    <text
       xml:space="preserve"
       style="font-size:9px;line-height:1.25em;font-family:sans-serif;-inkscape-font-specification:'sans-serif, Normal';word-spacing:0px;display:inline;fill:#000000;fill-opacity:0.501961"
       x="448.9046"
       y="315.55801"
       id="text1610"><tspan
         sodipodi:role="line"
         id="tspan1608"
         x="448.9046"
         y="315.55801">Döttinger Höhe</tspan></text>
    <text
       xml:space="preserve"
       style="font-size:9px;line-height:1.25em;font-family:sans-serif;-inkscape-font-specification:'sans-serif, Normal';word-spacing:0px;display:inline;fill:#000000;fill-opacity:0.501961"
       x="351.17502"
       y="373.76138"
       id="text1614"><tspan
         sodipodi:role="line"
         id="tspan1612"
         x="351.17502"
         y="373.76138">Antoniusbuche</tspan></text>
    <text
       xml:space="preserve"
       style="font-size:9px;line-height:1.25em;font-family:sans-serif;-inkscape-font-specification:'sans-serif, Normal';word-spacing:0px;display:inline;fill:#000000;fill-opacity:0.501961"
       x="330.78671"
       y="392.97385"
       id="text1618"><tspan
         sodipodi:role="line"
         id="tspan1616"
         x="330.78671"
         y="392.97385">Tiergarten</tspan></text>
    <text
       id="text1534-8"
       y="40.727226"
       x="247.08539"
       style="font-size:9px;line-height:1.25em;font-family:sans-serif;-inkscape-font-specification:'sans-serif, Normal';word-spacing:0px;display:inline;fill:#000000;fill-opacity:0.501961"
       xml:space="preserve"><tspan
         y="40.727226"
         x="247.08539"
         id="tspan1532-5"
         sodipodi:role="line">Lauda Linksknick</tspan></text>
  </g>
  <g
     inkscape:label="corners - ja"
     id="layer3"
     inkscape:groupmode="layer">
    <text
       id="text1090"
       y="389.74704"
       x="269.69003"
       style="font-size:6px;line-height:1.25em;font-family:sans-serif;-inkscape-font-specification:'sans-serif, Normal';word-spacing:0px;fill:#000000;fill-opacity:0.501961"
       xml:space="preserve"><tspan
         y="389.74704"
         x="269.69003"
         id="tspan1088"
         sodipodi:role="line">ノルドケーレ</tspan></text>
    <text
       xml:space="preserve"
       style="font-size:6px;line-height:1.25em;font-family:sans-serif;-inkscape-font-specification:'sans-serif, Normal';word-spacing:0px;fill:#000000;fill-opacity:0.501961"
       x="213.83299"
       y="401.62659"
       id="text1090-9"><tspan
         sodipodi:role="line"
         id="tspan1088-3"
         x="213.83299"
         y="401.62659">ハッツェンバッハ</tspan></text>
    <text
       id="text1090-9-9"
       y="402.64682"
       x="137.21703"
       style="font-size:6px;line-height:1.25em;font-family:sans-serif;-inkscape-font-specification:'sans-serif, Normal';word-spacing:0px;fill:#000000;fill-opacity:0.501961"
       xml:space="preserve"><tspan
         y="402.64682"
         x="137.21703"
         id="tspan1088-3-2"
         sodipodi:role="line">ホーヘアイヒェン</tspan></text>
    <text
       xml:space="preserve"
       style="font-size:6px;line-height:1.25em;font-family:sans-serif;-inkscape-font-specification:'sans-serif, Normal';word-spacing:0px;fill:#000000;fill-opacity:0.501961"
       x="171.00931"
       y="352.13135"
       id="text1090-9-9-5"><tspan
         sodipodi:role="line"
         id="tspan1088-3-2-5"
         x="171.00931"
         y="352.13135">クイッデルバッハー ホーヘ</tspan></text>
    <text
       xml:space="preserve"
       style="font-size:6px;line-height:1.25em;font-family:sans-serif;-inkscape-font-specification:'sans-serif, Normal';word-spacing:0px;fill:#000000;fill-opacity:0.501961"
       x="94.57473"
       y="337.41605"
       id="text1090-9-9-1"><tspan
         sodipodi:role="line"
         id="tspan1088-3-2-6"
         x="94.57473"
         y="337.41605">フルークプラッツ</tspan></text>
    <text
       id="text1090-9-9-1-9"
       y="296.23743"
       x="161.3678"
       style="font-size:6px;line-height:1.25em;font-family:sans-serif;-inkscape-font-specification:'sans-serif, Normal';word-spacing:0px;fill:#000000;fill-opacity:0.501961"
       xml:space="preserve"><tspan
         y="296.23743"
         x="161.3678"
         id="tspan1088-3-2-6-3"
         sodipodi:role="line">コッテンボルン</tspan></text>
    <text
       xml:space="preserve"
       style="font-size:6px;line-height:1.25em;font-family:sans-serif;-inkscape-font-specification:'sans-serif, Normal';word-spacing:0px;fill:#000000;fill-opacity:0.501961"
       x="148.70358"
       y="255.06557"
       id="text1090-9-9-1-9-0"><tspan
         sodipodi:role="line"
         id="tspan1088-3-2-6-3-7"
         x="148.70358"
         y="255.06557">シウェーデンクロイツ</tspan></text>
    <text
       id="text1090-9-9-1-9-0-4"
       y="208.19212"
       x="173.35307"
       style="font-size:6px;line-height:1.25em;font-family:sans-serif;-inkscape-font-specification:'sans-serif, Normal';word-spacing:0px;fill:#000000;fill-opacity:0.501961"
       xml:space="preserve"><tspan
         y="208.19212"
         x="173.35307"
         id="tspan1088-3-2-6-3-7-1"
         sodipodi:role="line">フクスルール</tspan></text>
    <text
       id="text1090-9-9-1-9-0-8"
       y="239.17163"
       x="68.890999"
       style="font-size:6px;line-height:1.25em;font-family:sans-serif;-inkscape-font-specification:'sans-serif, Normal';word-spacing:0px;fill:#000000;fill-opacity:0.501961"
       xml:space="preserve"><tspan
         y="239.17163"
         x="68.890999"
         id="tspan1088-3-2-6-3-7-8"
         sodipodi:role="line">アレンベルグ</tspan></text>
    <text
       xml:space="preserve"
       style="font-size:6px;line-height:1.25em;font-family:sans-serif;-inkscape-font-specification:'sans-serif, Normal';word-spacing:0px;fill:#000000;fill-opacity:0.501961"
       x="79.958328"
       y="217.33208"
       id="text1090-9-9-1-9-0-8-3"><tspan
         sodipodi:role="line"
         id="tspan1088-3-2-6-3-7-8-2"
         x="79.958328"
         y="217.33208">ポストシュトラーセ</tspan></text>
    <text
       id="text1090-9-9-1-9-0-8-3-3"
       y="173.06822"
       x="104.39465"
       style="font-size:6px;line-height:1.25em;font-family:sans-serif;-inkscape-font-specification:'sans-serif, Normal';word-spacing:0px;fill:#000000;fill-opacity:0.501961"
       xml:space="preserve"><tspan
         y="173.06822"
         x="104.39465"
         id="tspan1088-3-2-6-3-7-8-2-6"
         sodipodi:role="line">アデナー フォルスト</tspan></text>
    <text
       xml:space="preserve"
       style="font-size:6px;line-height:1.25em;font-family:sans-serif;-inkscape-font-specification:'sans-serif, Normal';word-spacing:0px;fill:#000000;fill-opacity:0.501961"
       x="149.48195"
       y="122.69626"
       id="text1090-9-9-1-9-0-8-3-3-0"><tspan
         sodipodi:role="line"
         id="tspan1088-3-2-6-3-7-8-2-6-9"
         x="149.48195"
         y="122.69626">メツゲツフェルト</tspan></text>
    <text
       id="text1090-9-9-1-9-0-8-3-3-0-7"
       y="84.784225"
       x="143.20819"
       style="font-size:6px;line-height:1.25em;font-family:sans-serif;-inkscape-font-specification:'sans-serif, Normal';word-spacing:0px;fill:#000000;fill-opacity:0.501961"
       xml:space="preserve"><tspan
         y="84.784225"
         x="143.20819"
         id="tspan1088-3-2-6-3-7-8-2-6-9-9"
         sodipodi:role="line">カレンハルト</tspan></text>
    <text
       id="text1090-9-9-1-9-0-8-3-3-0-0"
       y="87.337654"
       x="208.87239"
       style="font-size:6px;line-height:1.25em;font-family:sans-serif;-inkscape-font-specification:'sans-serif, Normal';word-spacing:0px;fill:#000000;fill-opacity:0.501961"
       xml:space="preserve"><tspan
         y="87.337654"
         x="208.87239"
         id="tspan1088-3-2-6-3-7-8-2-6-9-2"
         sodipodi:role="line">ヴェーアザイフェン</tspan></text>
    <text
       xml:space="preserve"
       style="font-size:6px;line-height:1.25em;font-family:sans-serif;-inkscape-font-specification:'sans-serif, Normal';word-spacing:0px;fill:#000000;fill-opacity:0.501961"
       x="150.42091"
       y="46.562302"
       id="text1090-9-9-1-9-0-8-3-3-0-7-7"><tspan
         sodipodi:role="line"
         id="tspan1088-3-2-6-3-7-8-2-6-9-9-2"
         x="150.42091"
         y="46.562302">ドライファッハ リヒトス</tspan></text>
    <text
       xml:space="preserve"
       style="font-size:6px;line-height:1.25em;font-family:sans-serif;-inkscape-font-specification:'sans-serif, Normal';word-spacing:0px;fill:#000000;fill-opacity:0.501961"
       x="238.89731"
       y="56.376667"
       id="text1090-9-9-1-9-0-8-3-3-0-0-1"><tspan
         sodipodi:role="line"
         id="tspan1088-3-2-6-3-7-8-2-6-9-2-3"
         x="238.89731"
         y="56.376667">エクスミューレ</tspan></text>
    <text
       xml:space="preserve"
       style="font-size:6px;line-height:1.25em;font-family:sans-serif;-inkscape-font-specification:'sans-serif, Normal';word-spacing:0px;fill:#000000;fill-opacity:0.501961"
       x="267.34747"
       y="91.505028"
       id="text1090-9-9-1-9-0-8-3-3-0-0-0"><tspan
         sodipodi:role="line"
         id="tspan1088-3-2-6-3-7-8-2-6-9-2-37"
         x="267.34747"
         y="91.505028">アウファフトブライトシャイト</tspan></text>
    <text
       id="text1090-9-9-1-9-0-8-3-3-0-0-0-2"
       y="32.202564"
       x="350.46188"
       style="font-size:6px;line-height:1.25em;font-family:sans-serif;-inkscape-font-specification:'sans-serif, Normal';word-spacing:0px;fill:#000000;fill-opacity:0.501961"
       xml:space="preserve"><tspan
         y="32.202564"
         x="350.46188"
         id="tspan1088-3-2-6-3-7-8-2-6-9-2-37-3"
         sodipodi:role="line">ベクルヴェルク</tspan></text>
    <text
       xml:space="preserve"
       style="font-size:6px;line-height:1.25em;font-family:sans-serif;-inkscape-font-specification:'sans-serif, Normal';word-spacing:0px;fill:#000000;fill-opacity:0.501961"
       x="377.65524"
       y="76.504387"
       id="text1090-9-9-1-9-0-8-3-3-0-0-0-2-1"><tspan
         sodipodi:role="line"
         id="tspan1088-3-2-6-3-7-8-2-6-9-2-37-3-9"
         x="377.65524"
         y="76.504387">ケッセルヒェン</tspan></text>
    <text
       id="text1090-9-9-1-9-0-8-3-3-0-0-0-2-1-2"
       y="122.98539"
       x="414.46741"
       style="font-size:6px;line-height:1.25em;font-family:sans-serif;-inkscape-font-specification:'sans-serif, Normal';word-spacing:0px;fill:#000000;fill-opacity:0.501961"
       xml:space="preserve"><tspan
         y="122.98539"
         x="414.46741"
         id="tspan1088-3-2-6-3-7-8-2-6-9-2-37-3-9-8"
         sodipodi:role="line">ムートコーヴェ</tspan></text>
    <text
       id="text1090-9-9-1-9-0-8-3-3-0-0-0-2-1-0"
       y="85.286568"
       x="442.91852"
       style="font-size:6px;line-height:1.25em;font-family:sans-serif;-inkscape-font-specification:'sans-serif, Normal';word-spacing:0px;fill:#000000;fill-opacity:0.501961"
       xml:space="preserve"><tspan
         y="85.286568"
         x="442.91852"
         id="tspan1088-3-2-6-3-7-8-2-6-9-2-37-3-9-2"
         sodipodi:role="line">クロスタータル</tspan></text>
    <text
       xml:space="preserve"
       style="font-size:6px;line-height:1.25em;font-family:sans-serif;-inkscape-font-specification:'sans-serif, Normal';word-spacing:0px;fill:#000000;fill-opacity:0.501961"
       x="460.87506"
       y="69.202599"
       id="text1090-9-9-1-9-0-8-3-3-0-0-0-2-1-0-1"><tspan
         sodipodi:role="line"
         id="tspan1088-3-2-6-3-7-8-2-6-9-2-37-3-9-2-3"
         x="460.87506"
         y="69.202599">シュタイルシュトレッケ</tspan></text>
    <text
       id="text1090-9-9-1-9-0-8-3-3-0-0-0-2-1-0-1-1"
       y="55.316948"
       x="513.92883"
       style="font-size:6px;line-height:1.25em;font-family:sans-serif;-inkscape-font-specification:'sans-serif, Normal';word-spacing:0px;fill:#000000;fill-opacity:0.501961"
       xml:space="preserve"><tspan
         y="55.316948"
         x="513.92883"
         id="tspan1088-3-2-6-3-7-8-2-6-9-2-37-3-9-2-3-3"
         sodipodi:role="line">ホーヘアハト</tspan></text>
    <text
       id="text1090-9-9-1-9-0-8-3-3-0-0-0-2-1-0-1-5"
       y="61.615078"
       x="561.59912"
       style="font-size:6px;line-height:1.25em;font-family:sans-serif;-inkscape-font-specification:'sans-serif, Normal';word-spacing:0px;fill:#000000;fill-opacity:0.501961"
       xml:space="preserve"><tspan
         y="61.615078"
         x="561.59912"
         id="tspan1088-3-2-6-3-7-8-2-6-9-2-37-3-9-2-3-5"
         sodipodi:role="line">ヘドウィグホーヘ</tspan></text>
    <text
       xml:space="preserve"
       style="font-size:6px;line-height:1.25em;font-family:sans-serif;-inkscape-font-specification:'sans-serif, Normal';word-spacing:0px;fill:#000000;fill-opacity:0.501961"
       x="595.33789"
       y="83.591743"
       id="text1090-9-9-1-9-0-8-3-3-0-0-0-2-1-0-1-5-0"><tspan
         sodipodi:role="line"
         id="tspan1088-3-2-6-3-7-8-2-6-9-2-37-3-9-2-3-5-0"
         x="595.33789"
         y="83.591743">ウィッパーマン</tspan></text>
    <text
       id="text1090-9-9-1-9-0-8-3-3-0-0-0-2-1-0-1-5-0-3"
       y="109.40765"
       x="539.05878"
       style="font-size:6px;line-height:1.25em;font-family:sans-serif;-inkscape-font-specification:'sans-serif, Normal';word-spacing:0px;fill:#000000;fill-opacity:0.501961"
       xml:space="preserve"><tspan
         y="109.40765"
         x="539.05878"
         id="tspan1088-3-2-6-3-7-8-2-6-9-2-37-3-9-2-3-5-0-1"
         sodipodi:role="line">エシュバッハ</tspan></text>
    <text
       xml:space="preserve"
       style="font-size:6px;line-height:1.25em;font-family:sans-serif;-inkscape-font-specification:'sans-serif, Normal';word-spacing:0px;fill:#000000;fill-opacity:0.501961"
       x="607.39972"
       y="129.0899"
       id="text1090-9-9-1-9-0-8-3-3-0-0-0-2-1-0-1-5-0-3-3"><tspan
         sodipodi:role="line"
         id="tspan1088-3-2-6-3-7-8-2-6-9-2-37-3-9-2-3-5-0-1-3"
         x="607.39972"
         y="129.0899">ブルンヒェン</tspan></text>
    <text
       id="text1090-9-9-1-9-0-8-3-3-0-0-0-2-1-0-1-5-0-3-3-1"
       y="128.34464"
       x="471.75827"
       style="font-size:6px;line-height:1.25em;font-family:sans-serif;-inkscape-font-specification:'sans-serif, Normal';word-spacing:0px;fill:#000000;fill-opacity:0.501961"
       xml:space="preserve"><tspan
         y="128.34464"
         x="471.75827"
         id="tspan1088-3-2-6-3-7-8-2-6-9-2-37-3-9-2-3-5-0-1-3-7"
         sodipodi:role="line">カルーセル</tspan></text>
    <text
       xml:space="preserve"
       style="font-size:6px;line-height:1.25em;font-family:sans-serif;-inkscape-font-specification:'sans-serif, Normal';word-spacing:0px;fill:#000000;fill-opacity:0.501961"
       x="525.88318"
       y="142.77194"
       id="text1090-9-9-1-9-0-8-3-3-0-0-0-2-1-2-3"><tspan
         sodipodi:role="line"
         id="tspan1088-3-2-6-3-7-8-2-6-9-2-37-3-9-8-7"
         x="525.88318"
         y="142.77194">アイスコーヴェ</tspan></text>
    <text
       id="text1090-9-9-1-9-0-8-3-3-0-0-0-2-1-2-3-8"
       y="166.18979"
       x="486.8992"
       style="font-size:6px;line-height:1.25em;font-family:sans-serif;-inkscape-font-specification:'sans-serif, Normal';word-spacing:0px;fill:#000000;fill-opacity:0.501961"
       xml:space="preserve"><tspan
         y="166.18979"
         x="486.8992"
         id="tspan1088-3-2-6-3-7-8-2-6-9-2-37-3-9-8-7-7"
         sodipodi:role="line">プランツガルテン アインス</tspan></text>
    <text
       xml:space="preserve"
       style="font-size:6px;line-height:1.25em;font-family:sans-serif;-inkscape-font-specification:'sans-serif, Normal';word-spacing:0px;fill:#000000;fill-opacity:0.501961"
       x="533.79376"
       y="232.42149"
       id="text1090-9-9-1-9-0-8-3-3-0-0-0-2-1-2-3-8-1"><tspan
         sodipodi:role="line"
         id="tspan1088-3-2-6-3-7-8-2-6-9-2-37-3-9-8-7-7-1"
         x="533.79376"
         y="232.42149">プランツガルテン ツヴァイ</tspan></text>
    <text
       id="text1090-9-9-1-9-0-8-3-3-0-0-0-2-1-2-3-8-1-6"
       y="199.40517"
       x="473.37842"
       style="font-size:6px;line-height:1.25em;font-family:sans-serif;-inkscape-font-specification:'sans-serif, Normal';word-spacing:0px;fill:#000000;fill-opacity:0.501961"
       xml:space="preserve"><tspan
         y="199.40517"
         x="473.37842"
         id="tspan1088-3-2-6-3-7-8-2-6-9-2-37-3-9-8-7-7-1-0"
         sodipodi:role="line">シュプラングヒューゲル</tspan></text>
    <text
       xml:space="preserve"
       style="font-size:6px;line-height:1.25em;font-family:sans-serif;-inkscape-font-specification:'sans-serif, Normal';word-spacing:0px;fill:#000000;fill-opacity:0.501961"
       x="398.48932"
       y="218.7975"
       id="text1090-9-9-1-9-0-8-3-3-0-0-0-2-1-2-3-8-1-6-4"><tspan
         sodipodi:role="line"
         id="tspan1088-3-2-6-3-7-8-2-6-9-2-37-3-9-8-7-7-1-0-7"
         x="398.48932"
         y="218.7975">シュワルベンシュワンツ</tspan></text>
    <text
       id="text1090-9-9-1-9-0-8-3-3-0-0-0-2-1-2-3-8-1-6-4-2"
       y="238.09468"
       x="378.28857"
       style="font-size:6px;line-height:1.25em;font-family:sans-serif;-inkscape-font-specification:'sans-serif, Normal';word-spacing:0px;fill:#000000;fill-opacity:0.501961"
       xml:space="preserve"><tspan
         y="238.09468"
         x="378.28857"
         id="tspan1088-3-2-6-3-7-8-2-6-9-2-37-3-9-8-7-7-1-0-7-6"
         sodipodi:role="line">クライネス カルーセル</tspan></text>
    <text
       xml:space="preserve"
       style="font-size:6px;line-height:1.25em;font-family:sans-serif;-inkscape-font-specification:'sans-serif, Normal';word-spacing:0px;fill:#000000;fill-opacity:0.501961"
       x="492.79715"
       y="269.16782"
       id="text1090-9-9-1-9-0-8-3-3-0-0-0-2-1-2-3-8-1-6-4-2-0"><tspan
         sodipodi:role="line"
         id="tspan1088-3-2-6-3-7-8-2-6-9-2-37-3-9-8-7-7-1-0-7-6-9"
         x="492.79715"
         y="269.16782">ガルゲンコプフ</tspan></text>
    <text
       id="text1090-9-9-1-9-0-8-3-3-0-0-0-2-1-2-3-8-1-6-4-2-0-3"
       y="308.08505"
       x="451.4978"
       style="font-size:6px;line-height:1.25em;font-family:sans-serif;-inkscape-font-specification:'sans-serif, Normal';word-spacing:0px;fill:#000000;fill-opacity:0.501961"
       xml:space="preserve"><tspan
         y="308.08505"
         x="451.4978"
         id="tspan1088-3-2-6-3-7-8-2-6-9-2-37-3-9-8-7-7-1-0-7-6-9-5"
         sodipodi:role="line">ドッティンガー ホーヘ</tspan></text>
    <text
       xml:space="preserve"
       style="font-size:6px;line-height:1.25em;font-family:sans-serif;-inkscape-font-specification:'sans-serif, Normal';word-spacing:0px;fill:#000000;fill-opacity:0.50196081;"
       x="359.94034"
       y="366.3826"
       id="text1090-8"><tspan
         sodipodi:role="line"
         id="tspan1088-1"
         x="359.94034"
         y="366.3826">アントニウスブーヘ</tspan></text>
    <text
       id="text1090-8-0"
       y="385.35901"
       x="333.2204"
       style="font-size:6px;line-height:1.25em;font-family:sans-serif;-inkscape-font-specification:'sans-serif, Normal';word-spacing:0px;fill:#000000;fill-opacity:0.501961"
       xml:space="preserve"><tspan
         y="385.35901"
         x="333.2204"
         id="tspan1088-1-1"
         sodipodi:role="line">ティアガルテン</tspan></text>
    <text
       xml:space="preserve"
       style="font-size:6px;line-height:1.25em;font-family:sans-serif;-inkscape-font-specification:'sans-serif, Normal';word-spacing:0px;fill:#000000;fill-opacity:0.501961"
       x="254.49263"
       y="33.027405"
       id="text1090-9-9-1-9-0-8-3-3-0-0-0-2-17"><tspan
         sodipodi:role="line"
         id="tspan1088-3-2-6-3-7-8-2-6-9-2-37-3-2"
         x="254.49263"
         y="33.027405">ラウダ リンクスニック</tspan></text>
  </g>
  <g
     inkscape:groupmode="layer"
     id="layer4"
     inkscape:label="title - ge"
     style="display:inline">
    <text
       xml:space="preserve"
       style="font-size:14px;line-height:1.25em;font-family:sans-serif;-inkscape-font-specification:'sans-serif, Normal';word-spacing:0px;display:inline;fill:#000000;fill-opacity:1"
       x="266.53516"
       y="221.98485"
       id="text1445"><tspan
         sodipodi:role="line"
         id="tspan1443"
         x="266.53516"
         y="221.98485">Nordschleife</tspan></text>
  </g>
  <g
     inkscape:groupmode="layer"
     id="layer5"
     inkscape:label="title - ja">
    <text
       id="text1090-9-9-1-9-0-8-3-3-0-0-0-2-1-2-3-8-1-6-4-0"
       y="210.29372"
       x="269.62738"
       style="font-size:10px;line-height:1.25em;font-family:sans-serif;-inkscape-font-specification:'sans-serif, Normal';word-spacing:0px;display:inline;fill:#000000;fill-opacity:1"
       xml:space="preserve"><tspan
         y="210.29372"
         x="269.62738"
         id="tspan1088-3-2-6-3-7-8-2-6-9-2-37-3-9-8-7-7-1-0-7-7"
         sodipodi:role="line"
         style="font-size:9px">ノルドシュライフェ</tspan></text>
  </g>
</svg>
